<svg width="69" height="69" viewBox="0 0 69 69" fill="none" xmlns="http://www.w3.org/2000/svg">
<g clip-path="url(#clip0_57_702)">
<path d="M69 0H23.0012C10.2959 0 0 10.2546 0 22.909H45.7209V46.091L68.9963 22.909V0H69Z" fill="url(#paint0_linear_57_702)"/>
<path d="M23.2754 22.909L0 46.091V69H45.9988C58.7005 69 69 58.7454 69 46.091H23.2754V22.909Z" fill="url(#paint1_linear_57_702)"/>
<g opacity="0.15">
<path d="M69 22.909L45.7209 46.091V22.909H69Z" fill="black"/>
<path d="M23.2754 46.091V22.909L0 46.091H23.2754Z" fill="black"/>
</g>
<path opacity="0.4" d="M68.4443 23.4588L69 22.909H45.7209V23.4588H68.4443Z" fill="black"/>
<path opacity="0.1" d="M45.7209 23.4588V24.0123H67.8922L68.4443 23.4588H45.7209Z" fill="black"/>
<path opacity="0.4" d="M0.555744 45.5375L0 46.091H23.2754V45.5375H0.555744Z" fill="black"/>
<path opacity="0.1" d="M23.2754 45.5375V44.9877H1.10783L0.555744 45.5375H23.2754Z" fill="black"/>
</g>
<defs>
<linearGradient id="paint0_linear_57_702" x1="3.8244" y1="33.3784" x2="72.0799" y2="8.43226" gradientUnits="userSpaceOnUse">
<stop stop-color="#0098C5"/>
<stop offset="0.57" stop-color="#A2C037"/>
</linearGradient>
<linearGradient id="paint1_linear_57_702" x1="-3.148" y1="60.3877" x2="65.1112" y2="35.4453" gradientUnits="userSpaceOnUse">
<stop offset="0.24" stop-color="#0098C5"/>
<stop offset="0.79" stop-color="#A2C037"/>
</linearGradient>
<clipPath id="clip0_57_702">
<rect width="69" height="69" fill="white"/>
</clipPath>
</defs>
</svg>
