<svg width="283" height="68" viewBox="0 0 283 68" fill="none" xmlns="http://www.w3.org/2000/svg">
<g clip-path="url(#clip0_31_47)">
<path d="M83.8588 50.2554V45.3276L97.002 25.1256H83.8588V19.621H104.46V24.5058L91.3172 44.7466H104.46V50.2511H83.8588V50.2554Z" fill="white"/>
<path d="M116.987 50.462C114.541 50.462 112.591 50.1392 111.135 49.4894C109.678 48.8395 108.629 47.6904 107.982 46.0334C107.335 44.3765 107.014 42.0868 107.014 39.1603C107.014 36.2337 107.314 33.8192 107.922 32.1666C108.526 30.5096 109.541 29.3519 110.972 28.6891C112.399 28.0263 114.335 27.6949 116.781 27.6949C118.979 27.6949 120.735 27.9144 122.055 28.3577C123.374 28.801 124.325 29.5714 124.916 30.6775C125.508 31.7835 125.803 33.3415 125.803 35.3557C125.803 36.8448 125.508 38.0241 124.916 38.8934C124.325 39.7628 123.494 40.3825 122.423 40.757C121.352 41.1314 120.088 41.3165 118.632 41.3165H113.071C113.127 42.4484 113.298 43.3522 113.585 44.0278C113.872 44.7035 114.408 45.1856 115.192 45.4782C115.976 45.7666 117.107 45.9129 118.593 45.9129H125.062V49.5152C123.991 49.7347 122.817 49.9499 121.541 50.1565C120.264 50.363 118.743 50.4663 116.987 50.4663V50.462ZM112.99 37.6754H118.015C118.837 37.6754 119.441 37.5119 119.827 37.1805C120.213 36.8491 120.405 36.2552 120.405 35.3987C120.405 34.5982 120.281 33.957 120.033 33.4749C119.784 32.9929 119.399 32.6486 118.88 32.442C118.358 32.2354 117.659 32.1322 116.777 32.1322C115.843 32.1322 115.102 32.2914 114.553 32.6099C114.005 32.9284 113.607 33.4878 113.358 34.2884C113.11 35.0889 112.986 36.2208 112.986 37.684L112.99 37.6754Z" fill="white"/>
<path d="M129.183 50.2554V28.0263H134.208L135.279 30.303C136.102 29.6144 137.139 28.999 138.39 28.461C139.64 27.923 140.926 27.6519 142.241 27.6519C144.053 27.6519 145.454 28.0091 146.443 28.7278C147.433 29.4466 148.127 30.402 148.525 31.6028C148.924 32.8035 149.121 34.1334 149.121 35.5967V50.2511H143.025V36.3843C143.025 35.6656 142.892 35.076 142.635 34.6025C142.374 34.1334 142.009 33.7762 141.543 33.5266C141.076 33.277 140.514 33.1522 139.855 33.1522C139.276 33.1522 138.719 33.221 138.184 33.3587C137.648 33.4965 137.139 33.6901 136.659 33.9397C136.179 34.1894 135.716 34.4777 135.279 34.8091V50.2511H129.183V50.2554Z" fill="white"/>
<path d="M160.332 50.5051C158.601 50.5051 157.145 50.1392 155.967 49.4076C154.784 48.676 153.897 47.4881 153.311 45.8484C152.719 44.2086 152.424 42.0481 152.424 39.3711C152.424 36.6942 152.677 34.3787 153.186 32.6658C153.696 30.9572 154.553 29.7005 155.761 28.9C156.969 28.0995 158.631 27.6992 160.748 27.6992C161.763 27.6992 162.765 27.8025 163.755 28.0091C164.745 28.2157 165.623 28.4567 166.394 28.7322V18.6742H172.533V50.2554H167.383L166.394 48.1423C165.927 48.5856 165.357 48.9858 164.685 49.343C164.012 49.7003 163.305 49.9843 162.564 50.1909C161.823 50.3975 161.082 50.5008 160.341 50.5008L160.332 50.5051ZM162.474 45.5815C163.297 45.5815 164.046 45.4438 164.719 45.1684C165.391 44.8929 165.948 44.6175 166.39 44.342V33.1651C165.841 32.9714 165.263 32.7777 164.659 32.5841C164.055 32.3904 163.408 32.2957 162.722 32.2957C161.707 32.2957 160.889 32.4765 160.272 32.8337C159.655 33.1909 159.205 33.8623 158.931 34.8392C158.657 35.8205 158.52 37.2322 158.52 39.0828C158.52 40.7957 158.648 42.1256 158.91 43.0767C159.171 44.0278 159.591 44.6863 160.165 45.0435C160.743 45.4008 161.51 45.5815 162.474 45.5815Z" fill="white"/>
<path d="M185.796 50.462C183.35 50.462 181.401 50.1392 179.944 49.4894C178.487 48.8395 177.438 47.6904 176.791 46.0334C176.144 44.3765 175.823 42.0868 175.823 39.1603C175.823 36.2337 176.123 33.8192 176.731 32.1666C177.335 30.5096 178.35 29.3519 179.781 28.6891C181.208 28.0263 183.144 27.6949 185.59 27.6949C187.788 27.6949 189.544 27.9144 190.864 28.3577C192.183 28.801 193.134 29.5714 193.726 30.6775C194.317 31.7835 194.612 33.3415 194.612 35.3557C194.612 36.8448 194.317 38.0241 193.726 38.8934C193.134 39.7628 192.303 40.3825 191.232 40.757C190.161 41.1314 188.898 41.3165 187.441 41.3165H181.88C181.936 42.4484 182.107 43.3522 182.394 44.0278C182.682 44.7035 183.217 45.1856 184.001 45.4782C184.785 45.7666 185.916 45.9129 187.402 45.9129H193.871V49.5152C192.8 49.7347 191.626 49.9499 190.35 50.1565C189.073 50.363 187.552 50.4663 185.796 50.4663V50.462ZM181.799 37.6754H186.824C187.647 37.6754 188.251 37.5119 188.636 37.1805C189.022 36.8491 189.215 36.2552 189.215 35.3987C189.215 34.5982 189.09 33.957 188.842 33.4749C188.593 32.9929 188.208 32.6486 187.689 32.442C187.167 32.2354 186.469 32.1322 185.586 32.1322C184.652 32.1322 183.911 32.2914 183.363 32.6099C182.814 32.9284 182.416 33.4878 182.167 34.2884C181.919 35.0889 181.795 36.2208 181.795 37.684L181.799 37.6754Z" fill="white"/>
<path d="M197.988 50.2554V28.0263H202.683L204.084 31.422C204.881 30.402 205.781 29.5327 206.783 28.8139C207.786 28.0952 208.972 27.738 210.347 27.738C210.647 27.738 210.96 27.7509 211.273 27.781C211.59 27.8111 211.885 27.8628 212.16 27.9446V34.2367C211.748 34.1808 211.316 34.1334 210.861 34.0904C210.407 34.0473 209.975 34.0301 209.563 34.0301C208.767 34.0301 208.047 34.1205 207.4 34.297C206.753 34.4777 206.162 34.7403 205.626 35.0846C205.091 35.4289 204.577 35.8765 204.08 36.4316V50.2554H197.984H197.988Z" fill="white"/>
<path d="M215.09 50.2554V19.6253H227.081C230.101 19.6253 232.307 20.3225 233.695 21.717C235.083 23.1114 235.777 25.0911 235.777 27.6562C235.777 28.8699 235.606 29.9415 235.263 30.8625C234.92 31.7878 234.432 32.5453 233.802 33.1392C233.168 33.7332 232.414 34.142 231.536 34.3615C232.196 34.5251 232.834 34.7919 233.451 35.1491C234.068 35.5063 234.633 35.9927 235.139 36.5995C235.649 37.2063 236.047 37.9466 236.334 38.816C236.621 39.6853 236.767 40.6838 236.767 41.8157C236.767 43.8858 236.415 45.5428 235.717 46.7823C235.019 48.0261 233.986 48.9127 232.628 49.4506C231.27 49.9886 229.6 50.2597 227.62 50.2597H215.094L215.09 50.2554ZM221.186 32.2527H227.119C227.997 32.2527 228.691 31.9299 229.201 31.28C229.711 30.6301 229.964 29.7823 229.964 28.7322C229.989 27.3808 229.715 26.4425 229.141 25.9175C228.563 25.3924 227.865 25.1299 227.038 25.1299H221.186V32.2484V32.2527ZM221.186 44.7509H227.449C228.164 44.7509 228.781 44.6132 229.304 44.3377C229.827 44.0623 230.229 43.6362 230.521 43.0552C230.808 42.4742 230.953 41.7038 230.953 40.7354C230.953 39.9349 230.803 39.2592 230.499 38.7084C230.195 38.1575 229.784 37.7271 229.261 37.4258C228.739 37.1203 228.134 36.9696 227.449 36.9696H221.186V44.7509Z" fill="white"/>
<path d="M249.494 50.462C247.682 50.462 246.127 50.277 244.838 49.9025C243.548 49.5281 242.494 48.9041 241.685 48.0175C240.875 47.1352 240.284 45.9603 239.911 44.497C239.538 43.0337 239.354 41.2261 239.354 39.0742C239.354 36.8104 239.538 34.9425 239.911 33.4663C240.284 31.9901 240.871 30.8324 241.685 29.9889C242.494 29.1453 243.552 28.5557 244.859 28.2071C246.161 27.8628 247.708 27.6906 249.494 27.6906C251.281 27.6906 252.9 27.8714 254.19 28.2286C255.479 28.5858 256.533 29.1884 257.343 30.0276C258.152 30.8711 258.743 32.0289 259.116 33.5051C259.489 34.9813 259.673 36.8362 259.673 39.0742C259.673 41.3122 259.493 43.1241 259.138 44.6003C258.782 46.0765 258.204 47.2428 257.407 48.0992C256.61 48.9557 255.56 49.5625 254.254 49.9197C252.947 50.277 251.362 50.4577 249.494 50.4577V50.462ZM249.494 45.5815C250.235 45.5815 250.861 45.5127 251.371 45.3749C251.881 45.2372 252.292 44.9532 252.609 44.5271C252.926 44.101 253.166 43.4425 253.329 42.5603C253.491 41.678 253.577 40.5203 253.577 39.0828C253.577 37.6453 253.496 36.4532 253.329 35.5838C253.166 34.7144 252.922 34.0646 252.609 33.6385C252.292 33.2124 251.881 32.9284 251.371 32.7906C250.861 32.6529 250.235 32.5841 249.494 32.5841C248.753 32.5841 248.171 32.6529 247.661 32.7906C247.151 32.9284 246.735 33.2124 246.406 33.6385C246.076 34.0689 245.836 34.7144 245.686 35.5838C245.536 36.4532 245.459 37.6195 245.459 39.0828C245.459 40.5461 245.536 41.678 245.686 42.5603C245.836 43.4425 246.076 44.101 246.406 44.5271C246.735 44.9575 247.155 45.2372 247.661 45.3749C248.171 45.5127 248.779 45.5815 249.494 45.5815Z" fill="white"/>
<path d="M276.522 50.2554L261.113 28.0263H267.251L282.704 50.2554H276.522ZM261.113 50.2554L269.642 37.2149L271.865 42.9691L267.29 50.2554H261.108H261.113ZM274.132 41.1529L271.535 36.0185L276.522 28.0306H282.704L274.132 41.1529Z" fill="white"/>
<path d="M67.4169 22.44V0H22.4737C10.1059 0 0.0771274 10.0365 1.5825e-05 22.44H67.4126H67.4169Z" fill="white"/>
<path d="M1.5825e-05 45.56V68H44.9432C57.3067 68 67.3398 57.9635 67.4126 45.56H1.5825e-05Z" fill="white"/>
<path d="M22.3495 23.8086H21.5098L1.21238 44.2L22.3495 44.2086V23.8086Z" fill="white"/>
<path d="M44.8832 23.8086V44.2172L45.8985 44.2215L66.2174 23.8086H44.8832Z" fill="white"/>
</g>
<defs>
<clipPath id="clip0_31_47">
<rect width="282.704" height="68" fill="white"/>
</clipPath>
</defs>
</svg>
