<svg width="284" height="68" viewBox="0 0 284 68" fill="none" xmlns="http://www.w3.org/2000/svg">
<g clip-path="url(#clip0_57_1400)">
<path d="M84.2288 50.2438V45.3685L97.371 25.3726H84.2288V19.924H104.83V24.7601L91.688 44.7952H104.83V50.2438H84.2288Z" fill="#009CC9"/>
<path d="M117.356 50.4503C114.911 50.4503 112.963 50.1298 111.505 49.4888C110.048 48.8478 108.998 47.7082 108.354 46.0665C107.709 44.4284 107.387 42.1599 107.387 39.2647C107.387 36.3695 107.688 33.9799 108.293 32.3418C108.898 30.7037 109.915 29.557 111.34 28.8982C112.769 28.2429 114.707 27.9153 117.149 27.9153C119.347 27.9153 121.106 28.1361 122.423 28.5705C123.741 29.0086 124.697 29.7742 125.288 30.8639C125.879 31.9572 126.173 33.4992 126.173 35.4934C126.173 36.9678 125.879 38.1358 125.288 38.9976C124.697 39.8594 123.867 40.4719 122.796 40.8423C121.725 41.2127 120.461 41.3943 119.004 41.3943H113.442C113.496 42.516 113.668 43.4099 113.958 44.0794C114.248 44.7489 114.782 45.2261 115.566 45.5145C116.35 45.7994 117.482 45.9454 118.964 45.9454H125.432V49.5102C124.361 49.731 123.186 49.9411 121.908 50.1441C120.629 50.347 119.111 50.4503 117.356 50.4503ZM113.36 37.7868H118.388C119.211 37.7868 119.817 37.623 120.2 37.2954C120.583 36.9678 120.776 36.3802 120.776 35.5326C120.776 34.742 120.651 34.1046 120.404 33.6274C120.157 33.1502 119.77 32.8083 119.251 32.6018C118.728 32.3988 118.03 32.2955 117.149 32.2955C116.214 32.2955 115.473 32.4522 114.925 32.7656C114.373 33.079 113.976 33.6345 113.729 34.4251C113.482 35.2192 113.356 36.3374 113.356 37.7868H113.36Z" fill="#009CC9"/>
<path d="M129.553 50.2438V28.2394H134.581L135.652 30.4936C136.475 29.8098 137.514 29.2044 138.763 28.6703C140.013 28.1361 141.299 27.8726 142.617 27.8726C144.429 27.8726 145.829 28.2287 146.821 28.9373C147.809 29.6496 148.504 30.5968 148.901 31.7863C149.299 32.9757 149.499 34.2933 149.499 35.7392V50.2438H143.401V36.5155C143.401 35.8068 143.268 35.2192 143.011 34.7527C142.749 34.2898 142.384 33.9337 141.918 33.6879C141.453 33.4422 140.887 33.3176 140.228 33.3176C139.652 33.3176 139.097 33.3852 138.559 33.5206C138.022 33.6559 137.514 33.8482 137.034 34.0939C136.554 34.3396 136.092 34.6281 135.655 34.9557V50.2402H129.557L129.553 50.2438Z" fill="#009CC9"/>
<path d="M160.701 50.4895C158.971 50.4895 157.513 50.1262 156.332 49.4033C155.15 48.6804 154.266 47.5052 153.675 45.8778C153.084 44.2539 152.79 42.1136 152.79 39.4641C152.79 36.8146 153.044 34.5212 153.553 32.8261C154.061 31.1346 154.921 29.8917 156.128 29.0976C157.334 28.307 158.996 27.9082 161.112 27.9082C162.129 27.9082 163.132 28.0114 164.12 28.2144C165.109 28.4174 165.99 28.6596 166.756 28.9302V18.9732H172.894V50.2366H167.744L166.756 48.1462C166.29 48.5843 165.717 48.9796 165.048 49.3357C164.375 49.6918 163.669 49.9696 162.924 50.1761C162.183 50.3827 161.442 50.4824 160.701 50.4824V50.4895ZM162.842 45.6143C163.666 45.6143 164.414 45.4789 165.087 45.2047C165.76 44.9305 166.316 44.6599 166.756 44.3857V33.3211C166.204 33.1288 165.628 32.9401 165.026 32.7478C164.421 32.5555 163.777 32.4593 163.089 32.4593C162.072 32.4593 161.256 32.6374 160.636 32.9935C160.017 33.3496 159.573 34.012 159.297 34.9806C159.021 35.9493 158.885 37.3524 158.885 39.1792C158.885 40.8744 159.014 42.192 159.275 43.1321C159.537 44.0758 159.956 44.724 160.532 45.0801C161.109 45.4362 161.879 45.6143 162.838 45.6143H162.842Z" fill="#009CC9"/>
<path d="M186.165 50.4503C183.719 50.4503 181.771 50.1298 180.314 49.4888C178.856 48.8478 177.807 47.7082 177.162 46.0665C176.518 44.4284 176.195 42.1599 176.195 39.2647C176.195 36.3695 176.496 33.9799 177.101 32.3418C177.707 30.7037 178.724 29.557 180.149 28.8982C181.578 28.2429 183.515 27.9153 185.957 27.9153C188.156 27.9153 189.914 28.1361 191.232 28.5705C192.55 29.0086 193.506 29.7742 194.097 30.8639C194.688 31.9572 194.981 33.4992 194.981 35.4934C194.981 36.9678 194.688 38.1358 194.097 38.9976C193.506 39.8594 192.675 40.4719 191.604 40.8423C190.534 41.2127 189.27 41.3943 187.812 41.3943H182.251C182.305 42.516 182.476 43.4099 182.766 44.0794C183.057 44.7489 183.59 45.2261 184.374 45.5145C185.159 45.7994 186.29 45.9454 187.773 45.9454H194.24V49.5102C193.169 49.731 191.995 49.9411 190.716 50.1441C189.438 50.347 187.92 50.4503 186.165 50.4503ZM182.168 37.7868H187.196C188.02 37.7868 188.625 37.623 189.008 37.2954C189.391 36.9678 189.585 36.3802 189.585 35.5326C189.585 34.742 189.459 34.1046 189.212 33.6274C188.965 33.1502 188.578 32.8083 188.059 32.6018C187.536 32.3988 186.838 32.2955 185.957 32.2955C185.023 32.2955 184.281 32.4522 183.733 32.7656C183.182 33.079 182.784 33.6345 182.537 34.4251C182.29 35.2192 182.165 36.3374 182.165 37.7868H182.168Z" fill="#009CC9"/>
<path d="M198.358 50.2438V28.2394H203.056L204.456 31.6011C205.251 30.5897 206.154 29.7315 207.157 29.0193C208.159 28.3106 209.348 27.9545 210.72 27.9545C211.02 27.9545 211.332 27.9687 211.647 27.9936C211.962 28.0221 212.259 28.0755 212.532 28.1575V34.3859C212.12 34.3325 211.686 34.2827 211.235 34.2435C210.78 34.2007 210.351 34.1829 209.939 34.1829C209.14 34.1829 208.421 34.272 207.776 34.45C207.131 34.6281 206.541 34.8881 206.003 35.2299C205.466 35.5718 204.954 36.0169 204.46 36.5618V50.2473H198.362L198.358 50.2438Z" fill="#009CC9"/>
<path d="M215.457 50.2438V19.924H227.446C230.469 19.924 232.671 20.6149 234.06 21.9931C235.446 23.3712 236.141 25.3334 236.141 27.8726C236.141 29.0762 235.969 30.1339 235.625 31.0491C235.281 31.9643 234.794 32.7157 234.164 33.3033C233.53 33.8909 232.778 34.2933 231.897 34.5141C232.556 34.6779 233.194 34.9379 233.813 35.294C234.433 35.6501 234.995 36.1273 235.503 36.7292C236.012 37.331 236.409 38.061 236.7 38.9228C236.99 39.7846 237.133 40.7746 237.133 41.8929C237.133 43.9405 236.782 45.5787 236.084 46.8108C235.382 48.0394 234.354 48.9226 232.993 49.4532C231.632 49.9874 229.964 50.2509 227.987 50.2509H215.461L215.457 50.2438ZM221.556 32.4202H227.489C228.367 32.4202 229.061 32.0997 229.57 31.4586C230.078 30.8176 230.333 29.9772 230.333 28.9373C230.361 27.5983 230.085 26.6689 229.509 26.149C228.932 25.629 228.231 25.3691 227.407 25.3691H221.556V32.4166V32.4202ZM221.556 44.7952H227.819C228.531 44.7952 229.151 44.6599 229.674 44.3857C230.197 44.1115 230.601 43.6877 230.888 43.1143C231.178 42.541 231.321 41.7753 231.321 40.8209C231.321 40.0304 231.171 39.3609 230.866 38.8124C230.562 38.2676 230.15 37.8438 229.631 37.5411C229.108 37.242 228.503 37.0888 227.819 37.0888H221.556V44.7916V44.7952Z" fill="#CCD32A"/>
<path d="M249.863 50.4503C248.051 50.4503 246.497 50.2651 245.208 49.8983C243.915 49.528 242.866 48.9083 242.057 48.0323C241.247 47.1598 240.657 45.9989 240.284 44.5495C239.912 43.1036 239.729 41.3124 239.729 39.1828C239.729 36.9428 239.915 35.091 240.284 33.6309C240.657 32.1709 241.244 31.0242 242.057 30.1873C242.866 29.354 243.926 28.7664 245.229 28.4245C246.533 28.0826 248.08 27.9117 249.863 27.9117C251.647 27.9117 253.269 28.0898 254.561 28.4459C255.851 28.802 256.903 29.3967 257.713 30.2265C258.522 31.0598 259.113 32.2065 259.485 33.6701C259.858 35.1302 260.04 36.9677 260.04 39.1828C260.04 41.3978 259.861 43.1927 259.503 44.6527C259.145 46.1164 258.569 47.2702 257.774 48.1142C256.975 48.9617 255.926 49.5636 254.622 49.9161C253.319 50.2722 251.732 50.4503 249.863 50.4503ZM249.863 45.6142C250.604 45.6142 251.231 45.5466 251.74 45.4077C252.248 45.2724 252.66 44.991 252.975 44.5673C253.29 44.1435 253.53 43.4954 253.695 42.6193C253.86 41.7468 253.942 40.5966 253.942 39.1757C253.942 37.7548 253.86 36.5725 253.695 35.7142C253.53 34.8524 253.29 34.2114 252.975 33.7876C252.66 33.3639 252.248 33.0861 251.74 32.9472C251.231 32.8119 250.608 32.7442 249.863 32.7442C249.118 32.7442 248.538 32.8119 248.03 32.9472C247.521 33.0861 247.102 33.3639 246.773 33.7876C246.443 34.2114 246.203 34.8524 246.053 35.7142C245.903 36.576 245.827 37.7298 245.827 39.1757C245.827 40.6215 245.903 41.7433 246.053 42.6193C246.203 43.4954 246.443 44.1435 246.773 44.5673C247.102 44.991 247.521 45.2724 248.03 45.4077C248.538 45.5466 249.147 45.6142 249.863 45.6142Z" fill="#CCD32A"/>
<path d="M276.892 50.2438L261.483 28.2393H267.621L283.073 50.2438H276.892ZM261.483 50.2438L270.013 37.3381L272.237 43.0324L267.664 50.2438H261.483ZM274.5 41.2305L271.904 36.1487L276.889 28.2393H283.07L274.5 41.2269V41.2305Z" fill="#CCD32A"/>
<path d="M67.785 0.505005H22.8438C10.4321 0.505005 0.373154 10.5083 0.373154 22.8513H45.0458V45.4682L67.7886 22.8513V0.505005H67.785Z" fill="url(#paint0_linear_57_1400)"/>
<path d="M23.1159 22.8513L0.373154 45.4682V67.8145H45.3144C57.726 67.8145 67.785 57.8112 67.785 45.4682H23.1159V22.8513Z" fill="url(#paint1_linear_57_1400)"/>
<g opacity="0.15">
<path d="M67.785 22.8513L45.0458 45.4682V22.8513H67.785Z" fill="black"/>
<path d="M23.1159 45.4682V22.8513L0.373154 45.4682H23.1159Z" fill="black"/>
</g>
<path opacity="0.4" d="M67.2443 23.389L67.785 22.8513H45.0458V23.389H67.2443Z" fill="black"/>
<path opacity="0.1" d="M45.0458 23.389V23.9303H66.7035L67.2443 23.389H45.0458Z" fill="black"/>
<path opacity="0.4" d="M0.913881 44.9305L0.373154 45.4682H23.1159V44.9305H0.913881Z" fill="black"/>
<path opacity="0.1" d="M23.1159 44.9305V44.3892H1.45461L0.913881 44.9305H23.1159Z" fill="black"/>
</g>
<defs>
<linearGradient id="paint0_linear_57_1400" x1="4.11169" y1="33.0647" x2="70.7741" y2="8.66807" gradientUnits="userSpaceOnUse">
<stop stop-color="#0098C5"/>
<stop offset="0.57" stop-color="#A2C037"/>
</linearGradient>
<linearGradient id="paint1_linear_57_1400" x1="-2.69932" y1="59.4137" x2="63.9595" y2="35.0171" gradientUnits="userSpaceOnUse">
<stop offset="0.24" stop-color="#0098C5"/>
<stop offset="0.79" stop-color="#A2C037"/>
</linearGradient>
<clipPath id="clip0_57_1400">
<rect width="282.7" height="67.3095" fill="white" transform="translate(0.373154 0.505005)"/>
</clipPath>
</defs>
</svg>
